<svg width="176" height="178" viewBox="0 0 176 178" fill="none" xmlns="http://www.w3.org/2000/svg">
<g clip-path="url(#clip0_99_73)">
<path d="M56.8333 157.667H20V88.8333C23.1667 71.3333 39.5 60.5 75 62.1666C79.1668 62.3623 83.6668 70.9297 75 72.8333C64.7416 75.0864 60.2626 77.3539 56.8333 85V157.667Z" fill="#4C6FE0"/>
<path d="M118.333 157.667V65C118.333 55.1667 109 45.3333 96.3333 45.3333H62C56.8333 45.3333 54.1667 48.8333 54.1667 53V56.8333C39.3358 59.0606 31.8866 61.958 20 69.8333V54.8333C20 38.6667 34.0002 20 56.8333 20H102.333C131 20 155.667 46.6667 155.667 65V157.667H118.333Z" fill="#4C6FE0"/>
<path d="M155.833 23.5003C155.833 21.8337 154.167 20.167 151.833 20.167H126.5C142.172 28.0344 148.632 33.8952 155.833 47.3337V23.5003Z" fill="#EC1F28"/>
</g>
<defs>
<clipPath id="clip0_99_73">
<rect width="135.833" height="137.667" fill="white" transform="translate(20 20)"/>
</clipPath>
</defs>
</svg>
