<svg width="731" height="173" viewBox="0 0 731 173" fill="none" xmlns="http://www.w3.org/2000/svg">
<g clip-path="url(#clip0_75_666)">
<g clip-path="url(#clip1_75_666)">
<path fill-rule="evenodd" clip-rule="evenodd" d="M48.2525 70.7508C48.3917 90.3238 48.5067 115.496 48.5079 126.688L48.5102 147.038H86.1232H123.736V139.129V131.221H95.9604H68.1847V83.192V35.1631H58.0917H47.999L48.2525 70.7508ZM458.589 91.1004V147.038H468.619H478.649L478.656 130.16L478.663 113.282L485.639 105.76C489.477 101.622 493.316 97.4171 494.172 96.4145C495.028 95.4118 495.871 94.6804 496.047 94.7892C496.223 94.898 501.697 102.922 508.212 112.622C526.965 140.541 530.416 145.643 531.037 146.363C531.566 146.976 532.619 147.038 542.554 147.038C548.569 147.038 553.489 146.952 553.489 146.848C553.489 146.675 541.242 128.501 535.549 120.226C517.978 94.6846 508.739 81.0976 508.739 80.7952C508.739 80.6417 509.133 80.1633 509.613 79.7324C510.489 78.9469 515.677 73.3698 536.901 50.3989C543.16 43.6243 548.953 37.4249 549.774 36.6225L551.267 35.1631H539.485H527.704L520.671 42.7821C516.803 46.9724 511.793 52.3976 509.537 54.8376C504.305 60.4957 486.417 80.0526 482.121 84.8111L478.842 88.4436L478.743 61.8031L478.643 35.1631H468.616H458.589V91.1004ZM251.62 39.6115C248.382 40.5929 237.026 43.6501 236.619 43.6501C236.489 43.6501 236.382 47.9901 236.382 53.2945V62.9389H230.21H224.038V70.4615V77.9841H230.21H236.382V100.094C236.382 117.215 236.509 123.163 236.943 126.451C238.465 137.997 243.849 144.506 254.338 147.481C256.945 148.221 258.365 148.355 263.772 148.37C270.176 148.388 272.923 148.025 278.914 146.368L281.132 145.754V138.269C281.132 131.317 281.084 130.798 280.457 130.991C276.369 132.251 274.374 132.549 269.945 132.56C264.034 132.574 261.745 131.915 259.334 129.504C256.29 126.459 256.322 126.729 256.236 104.024C256.193 92.9907 256.237 82.6184 256.331 80.9738L256.504 77.9841H267.075H277.646L277.859 77.1161C277.977 76.6389 278.024 73.2969 277.963 69.6899L277.853 63.1317L267.148 63.0291L256.443 62.9265L256.385 61.2931C256.353 60.3947 256.292 55.4066 256.249 50.2083C256.15 38.0417 256.194 38.6308 255.382 38.6559C255.011 38.6671 253.318 39.0972 251.62 39.6115ZM309.294 40.9428C304.944 42.1707 300.908 43.2852 300.325 43.4198L299.264 43.6648V53.3018V62.9389H293.091H286.919V70.4615V77.9841H293.068H299.218L299.357 103.156C299.48 125.531 299.57 128.585 300.159 130.642C303.521 142.378 310.987 147.788 324.742 148.457C328.416 148.636 330.553 148.532 333.615 148.028C338.543 147.216 342.5 146.281 343.146 145.777C343.501 145.499 343.628 143.477 343.628 138.073C343.628 131.271 343.579 130.76 342.953 130.957C337.125 132.787 331.341 133.24 327.095 132.199C323.649 131.354 321.77 130.011 320.288 127.333L319.131 125.241L319.023 101.613L318.915 77.9841H329.729H340.542V70.4615V62.9389H329.74H318.938V50.787V38.6351L318.07 38.6729C317.593 38.6937 313.643 39.7152 309.294 40.9428ZM161.928 61.9717C152.482 63.3871 145.882 66.2893 140.107 71.5671C134.263 76.9085 130.885 83.383 128.708 93.415C127.456 99.1866 127.45 109.879 128.697 115.79C130.848 125.992 134.079 132.394 139.793 137.779C148.216 145.717 158.733 149.028 173.692 148.451C186.993 147.938 195.933 144.535 203.312 137.176C213.186 127.33 216.952 110.464 213.386 92.0648C210.212 75.6906 198.524 64.8002 181.09 61.9729C176.786 61.2746 166.583 61.2742 161.928 61.9717ZM386.449 62.0338C381.368 62.8139 375.092 64.9823 371.114 67.3317C366.604 69.9958 361.305 75.2065 358.915 79.3265C354.769 86.4738 352.891 94.4157 352.891 104.795C352.891 116.195 355.43 125.614 360.368 132.535C362.526 135.559 367.922 140.66 370.741 142.343C378.645 147.06 387.196 148.897 399.179 148.451C412.831 147.943 422.128 144.103 429.82 135.795C436.041 129.076 439.371 119.93 439.914 108.074C440.635 92.3264 436.156 79.1935 427.372 71.2994C421.792 66.2843 413.661 62.871 404.773 61.8116C400.01 61.2441 390.873 61.3549 386.449 62.0338ZM658.42 104.988V147.038H668.064H677.708V104.988V62.9389H668.064H658.42V104.988ZM178.031 77.7989C181.519 78.6079 184.497 80.1695 187.048 82.5277C189.869 85.1348 191.385 87.52 192.777 91.5429C194.359 96.1139 194.848 100.172 194.618 106.84C194.302 116.039 192.45 121.398 187.933 126.186C183.549 130.834 179.072 132.529 171.187 132.529C161.856 132.529 156.206 129.703 151.897 122.88C148.641 117.725 147.46 111.88 147.744 102.333C147.906 96.8913 148.041 95.9504 149.137 92.6099C152.056 83.7128 157.91 78.6368 166.893 77.2152C169.628 76.782 174.82 77.0544 178.031 77.7989ZM401.171 77.3691C407.772 78.6337 412.825 81.8889 416.004 86.9259C417.4 89.1368 419.13 93.9802 419.62 97.0471C420.212 100.754 420.127 109.316 419.461 113.09C417.78 122.605 412.17 129.413 404.001 131.85C400.786 132.81 392.617 132.837 389.229 131.9C381.251 129.694 376.114 124.18 373.66 115.189C372.947 112.577 372.818 111.044 372.788 104.795C372.758 98.2457 372.847 97.1424 373.634 94.4261C376.402 84.8728 382.186 79.1445 390.773 77.454C394.459 76.7284 397.689 76.7021 401.171 77.3691Z" fill="#223C79"/>
<path d="M657.945 36.6742C658.8 35.9493 664.421 32.8068 670.437 29.6905C676.452 26.5742 681.504 24.0138 681.663 24.0003C681.822 23.9868 681.952 24.4112 681.952 24.9432C681.952 26.4955 680.818 33.6104 680.174 36.0944C679.403 39.0752 677.327 43.1351 675.768 44.7126C675.08 45.4089 671.673 47.4153 668.114 49.2203C664.586 51.0092 659.703 53.6116 657.263 55.0039C654.823 56.3957 652.736 57.5357 652.626 57.5365C652.515 57.5376 652.55 55.7025 652.704 53.4585C653.311 44.5903 655.005 39.1663 657.945 36.6742Z" fill="#EC1F28"/>
</g>
<g clip-path="url(#clip2_75_666)">
<path d="M584.586 146.693H562.08V104.635C564.015 93.9422 573.995 87.323 595.686 88.3413C598.231 88.4608 600.981 93.6956 595.686 94.8587C589.418 96.2354 586.681 97.6209 584.586 102.293V146.693Z" fill="#223C79"/>
<path d="M622.163 146.693V90.0725C622.163 84.0643 616.46 78.056 608.72 78.056H587.742C584.586 78.056 582.956 80.1946 582.956 82.7404V85.0826C573.894 86.4435 569.343 88.2138 562.08 93.0257V83.8606C562.08 73.9826 570.634 62.5771 584.586 62.5771H612.386C629.902 62.5771 644.974 78.8707 644.974 90.0725V146.693H622.163Z" fill="#223C79"/>
<path d="M645.075 64.7164C645.075 63.698 644.057 62.6797 642.631 62.6797H627.152C636.728 67.4867 640.675 71.0677 645.075 79.2787V64.7164Z" fill="#EC1F28"/>
</g>
</g>
<defs>
<clipPath id="clip0_75_666">
<rect width="635" height="124.745" fill="white" transform="translate(48 24)"/>
</clipPath>
<clipPath id="clip1_75_666">
<rect width="633.953" height="124.539" fill="white" transform="translate(47.9995 24)"/>
</clipPath>
<clipPath id="clip2_75_666">
<rect width="82.9954" height="84.1154" fill="white" transform="translate(562.08 62.5771)"/>
</clipPath>
</defs>
</svg>
