<svg width="1024" height="1024" viewBox="0 0 1024 1024" fill="none" xmlns="http://www.w3.org/2000/svg">
<g clip-path="url(#clip0_141_6)">
<path d="M330.98 912.864H116.474V512.001C134.915 410.086 230.036 346.996 436.777 356.702C461.043 357.841 487.25 407.736 436.777 418.822C377.035 431.943 350.95 445.148 330.98 489.677V912.864Z" fill="#223C79"/>
<path d="M689.137 912.864V373.203C689.137 315.937 634.782 258.67 561.015 258.67H361.069C330.98 258.67 315.45 279.053 315.45 303.319V325.643C229.08 338.614 185.698 355.487 116.474 401.351V313.995C116.474 219.846 198.006 111.137 330.98 111.137H595.958C762.903 111.137 906.554 266.435 906.554 373.203V912.864H689.137Z" fill="#223C79"/>
<path d="M907.525 131.522C907.525 121.816 897.819 112.109 884.23 112.109H736.697C827.963 157.926 865.588 192.058 907.525 270.32V131.522Z" fill="#EC1F28"/>
</g>
<defs>
<clipPath id="clip0_141_6">
<rect width="791.052" height="801.727" fill="white" transform="translate(116.474 111.137)"/>
</clipPath>
</defs>
</svg>
