<svg width="1200" height="800" viewBox="0 0 1200 800" fill="none" xmlns="http://www.w3.org/2000/svg">
<g clip-path="url(#clip0_126_209)">
<path d="M0 0V800H1200V0H0Z" fill="#012169"/>
<mask id="mask0_126_209" style="mask-type:luminance" maskUnits="userSpaceOnUse" x="0" y="0" width="1200" height="800">
<path d="M0.0229492 0.0253906V799.974H1200V0.0253906H0.0229492Z" fill="white"/>
</mask>
<g mask="url(#mask0_126_209)">
<path d="M0.0229492 0.0253906L1200 799.974ZM1200 0.0253906L0.0229492 799.974Z" fill="white"/>
<path d="M0.0229492 0.0253906L1200 799.974M1200 0.0253906L0.0229492 799.974" stroke="white" stroke-width="138.796"/>
</g>
<mask id="mask1_126_209" style="mask-type:luminance" maskUnits="userSpaceOnUse" x="0" y="0" width="1200" height="800">
<path d="M600.035 400H1200V800L600.035 400ZM600.035 400V800H0L600.035 400ZM600.035 400H0V0L600.035 400ZM600.035 400V0H1200L600.035 400Z" fill="white"/>
</mask>
<g mask="url(#mask1_126_209)">
<path d="M0 0L1200 800ZM1200 0L0 800Z" fill="black"/>
<path d="M0 0L1200 800M1200 0L0 800" stroke="#C8102E" stroke-width="88.9719"/>
</g>
<path d="M0.0229492 266.675H480.014V0.0253906H720.009V266.675H1200V533.325H720.009V799.974H480.014V533.325H0.0229492V266.675Z" fill="white"/>
<path d="M0.0229492 320.005H528.013V0.0253906H672.01V320.005H1200V479.995H672.01V799.974H528.013V479.995H0.0229492V320.005Z" fill="#C8102E"/>
<mask id="mask2_126_209" style="mask-type:luminance" maskUnits="userSpaceOnUse" x="0" y="0" width="1201" height="800">
<path d="M0 0V799.989L1200 8.20502e-05L0 0Z" fill="white"/>
</mask>
<g mask="url(#mask2_126_209)">
<path d="M0 0H1200V800.002H0" fill="#B31942"/>
<path d="M0 92.3076H1200ZM1200 215.385H0ZM0 338.463H1200ZM1200 461.54H0ZM0 584.616H1200ZM1200 707.693H0Z" fill="black"/>
<path d="M0 92.3076H1200M1200 215.385H0M0 338.463H1200M1200 461.54H0M0 584.616H1200M1200 707.693H0" stroke="white" stroke-width="50"/>
<path d="M0 0H480.001V430.77H0" fill="#0A3161"/>
<path d="M40.0002 18.4619L51.4227 62.9916L21.5181 35.4708H58.4823L28.5776 62.9916L40.0002 18.4619Z" fill="white"/>
<path d="M40.0002 104.616L51.4227 149.146L21.5181 121.625H58.4823L28.5776 149.146L40.0002 104.616Z" fill="white"/>
<path d="M40.0002 190.77L51.4227 235.299L21.5181 207.778H58.4823L28.5776 235.299L40.0002 190.77Z" fill="white"/>
<path d="M40.0002 276.924L51.4227 321.454L21.5181 293.933H58.4823L28.5776 321.454L40.0002 276.924Z" fill="white"/>
<path d="M40.0002 363.078L51.4227 407.608L21.5181 380.087H58.4823L28.5776 407.608L40.0002 363.078Z" fill="white"/>
<path d="M80.0002 61.5391L91.4227 106.069L61.5181 78.5479H98.4823L68.5776 106.069L80.0002 61.5391Z" fill="white"/>
<path d="M80.0002 147.693L91.4227 192.223L61.5181 164.702H98.4823L68.5776 192.223L80.0002 147.693Z" fill="white"/>
<path d="M80.0002 233.847L91.4227 278.376L61.5181 250.856H98.4823L68.5776 278.376L80.0002 233.847Z" fill="white"/>
<path d="M80.0002 320.001L91.4227 364.531L61.5181 337.01H98.4823L68.5776 364.531L80.0002 320.001Z" fill="white"/>
<path d="M120 18.4619L131.423 62.9916L101.518 35.4708H138.483L108.578 62.9916L120 18.4619Z" fill="white"/>
<path d="M120 104.616L131.423 149.146L101.518 121.625H138.483L108.578 149.146L120 104.616Z" fill="white"/>
<path d="M120 190.77L131.423 235.299L101.518 207.778H138.483L108.578 235.299L120 190.77Z" fill="white"/>
<path d="M120 276.924L131.423 321.454L101.518 293.933H138.483L108.578 321.454L120 276.924Z" fill="white"/>
<path d="M120 363.078L131.423 407.608L101.518 380.087H138.483L108.578 407.608L120 363.078Z" fill="white"/>
<path d="M160 61.5391L171.423 106.069L141.518 78.5479H178.483L148.578 106.069L160 61.5391Z" fill="white"/>
<path d="M160 147.693L171.423 192.223L141.518 164.702H178.483L148.578 192.223L160 147.693Z" fill="white"/>
<path d="M160 233.847L171.423 278.376L141.518 250.856H178.483L148.578 278.376L160 233.847Z" fill="white"/>
<path d="M160 320.001L171.423 364.531L141.518 337.01H178.483L148.578 364.531L160 320.001Z" fill="white"/>
<path d="M200 18.4619L211.423 62.9916L181.518 35.4708H218.483L188.578 62.9916L200 18.4619Z" fill="white"/>
<path d="M200 104.616L211.423 149.146L181.518 121.625H218.483L188.578 149.146L200 104.616Z" fill="white"/>
<path d="M200 190.77L211.423 235.299L181.518 207.778H218.483L188.578 235.299L200 190.77Z" fill="white"/>
<path d="M200 276.924L211.423 321.454L181.518 293.933H218.483L188.578 321.454L200 276.924Z" fill="white"/>
<path d="M200 363.078L211.423 407.608L181.518 380.087H218.483L188.578 407.608L200 363.078Z" fill="white"/>
<path d="M240 61.5391L251.423 106.069L221.518 78.5479H258.483L228.578 106.069L240 61.5391Z" fill="white"/>
<path d="M240 147.693L251.423 192.223L221.518 164.702H258.483L228.578 192.223L240 147.693Z" fill="white"/>
<path d="M240 233.847L251.423 278.376L221.518 250.856H258.483L228.578 278.376L240 233.847Z" fill="white"/>
<path d="M240 320.001L251.423 364.531L221.518 337.01H258.483L228.578 364.531L240 320.001Z" fill="white"/>
<path d="M280.001 18.4619L291.423 62.9916L261.519 35.4708H298.483L268.578 62.9916L280.001 18.4619Z" fill="white"/>
<path d="M280.001 104.616L291.423 149.146L261.519 121.625H298.483L268.578 149.146L280.001 104.616Z" fill="white"/>
<path d="M280.001 190.77L291.423 235.299L261.519 207.778H298.483L268.578 235.299L280.001 190.77Z" fill="white"/>
<path d="M280.001 276.924L291.423 321.454L261.519 293.933H298.483L268.578 321.454L280.001 276.924Z" fill="white"/>
<path d="M280.001 363.078L291.423 407.608L261.519 380.087H298.483L268.578 407.608L280.001 363.078Z" fill="white"/>
<path d="M320.001 61.5391L331.423 106.069L301.519 78.5479H338.483L308.578 106.069L320.001 61.5391Z" fill="white"/>
<path d="M320.001 147.693L331.423 192.223L301.519 164.702H338.483L308.578 192.223L320.001 147.693Z" fill="white"/>
<path d="M320.001 233.847L331.423 278.376L301.519 250.856H338.483L308.578 278.376L320.001 233.847Z" fill="white"/>
<path d="M320.001 320.001L331.423 364.531L301.519 337.01H338.483L308.578 364.531L320.001 320.001Z" fill="white"/>
<path d="M360.001 18.4619L371.423 62.9916L341.519 35.4708H378.483L348.578 62.9916L360.001 18.4619Z" fill="white"/>
<path d="M360.001 104.616L371.423 149.146L341.519 121.625H378.483L348.578 149.146L360.001 104.616Z" fill="white"/>
<path d="M360.001 190.77L371.423 235.299L341.519 207.778H378.483L348.578 235.299L360.001 190.77Z" fill="white"/>
<path d="M360.001 276.924L371.423 321.454L341.519 293.933H378.483L348.578 321.454L360.001 276.924Z" fill="white"/>
<path d="M360.001 363.078L371.423 407.608L341.519 380.087H378.483L348.578 407.608L360.001 363.078Z" fill="white"/>
<path d="M400.001 61.5391L411.423 106.069L381.519 78.5479H418.483L388.578 106.069L400.001 61.5391Z" fill="white"/>
<path d="M400.001 147.693L411.423 192.223L381.519 164.702H418.483L388.578 192.223L400.001 147.693Z" fill="white"/>
<path d="M400.001 233.847L411.423 278.376L381.519 250.856H418.483L388.578 278.376L400.001 233.847Z" fill="white"/>
<path d="M400.001 320.001L411.423 364.531L381.519 337.01H418.483L388.578 364.531L400.001 320.001Z" fill="white"/>
<path d="M440.001 18.4619L451.423 62.9916L421.519 35.4708H458.483L428.578 62.9916L440.001 18.4619Z" fill="white"/>
<path d="M440.001 104.616L451.423 149.146L421.519 121.625H458.483L428.578 149.146L440.001 104.616Z" fill="white"/>
<path d="M440.001 190.77L451.423 235.299L421.519 207.778H458.483L428.578 235.299L440.001 190.77Z" fill="white"/>
<path d="M440.001 276.924L451.423 321.454L421.519 293.933H458.483L428.578 321.454L440.001 276.924Z" fill="white"/>
<path d="M440.001 363.078L451.423 407.608L421.519 380.087H458.483L428.578 407.608L440.001 363.078Z" fill="white"/>
</g>
</g>
<defs>
<clipPath id="clip0_126_209">
<rect width="1200" height="800" fill="white"/>
</clipPath>
</defs>
</svg>
